<?xml version="1.0" ?><svg height="20px" version="1.1" viewBox="0 0 20 20" width="20px" xmlns="http://www.w3.org/2000/svg" xmlns:xlink="http://www.w3.org/1999/xlink"><title/><g fill="none" fill-rule="evenodd" id="Icons" stroke="none" stroke-width="1"><g id="Shape" transform="translate(-2.000000, -2.000000)"><line stroke="#000000" stroke-linecap="round" stroke-linejoin="round" stroke-width="2" x1="8" x2="8" y1="11" y2="17"/><path d="M8.00439261,7 C8.55667736,7 9.00439261,7.44771525 9.00439261,8 C9.00439261,8.51283584 8.61835242,8.93550716 8.12101374,8.99327227 L8.00439261,9 C7.44771525,9 7,8.55228475 7,8 C7,7.48716416 7.38604019,7.06449284 7.88337887,7.00672773 L8.00439261,7 Z" fill="#000000" fill-rule="nonzero"/><line stroke="#000000" stroke-linecap="round" stroke-linejoin="round" stroke-width="2" x1="11" x2="11" y1="11" y2="17"/><path d="M11,17 L11,14 C11,12.3431458 12.3431458,11 14,11 C15.6568542,11 17,12.3431458 17,14 L17,17 L17,17" stroke="#000000" stroke-linecap="round" stroke-linejoin="round" stroke-width="2"/><path d="M6,3 L18,3 C19.6568542,3 21,4.34314575 21,6 L21,18 C21,19.6568542 19.6568542,21 18,21 L6,21 C4.34314575,21 3,19.6568542 3,18 L3,6 C3,4.34314575 4.34314575,3 6,3 Z" stroke="#000000" stroke-linecap="round" stroke-linejoin="round" stroke-width="2"/></g></g></svg>