<?xml version="1.0" ?><svg id="Layer_1" style="enable-background:new 0 0 64 64;" version="1.1" viewBox="0 0 64 64" xml:space="preserve" xmlns="http://www.w3.org/2000/svg" xmlns:xlink="http://www.w3.org/1999/xlink"><style type="text/css">
	.st0{fill:none;stroke:#000000;stroke-width:4;stroke-linecap:round;stroke-linejoin:round;}
</style><title/><path class="st0" d="M54.995533,16.684496l-0.000004-0.000002c-0.267666-1.031308-1.290054-1.676643-2.337029-1.478942  c-1.697083,0.320463-3.127544,0.607109-4.737923,0.925733c-1.731895-1.85237-4.200539-3.010574-6.932293-3.010574  c-5.244564,0-9.496784,4.267811-9.496784,9.532545c0,0.046879,0.000332,0.093683,0.00099,0.140409  c0.015371,1.089458-0.90204,1.971575-1.981989,1.827129c-6.977079-0.933201-13.111063-4.536438-17.349928-9.755233  c-0.817554,1.407199-1.285534,3.044528-1.285534,4.793153c0,3.306728,1.676456,6.224873,4.22497,7.933882  c-1.556164-0.049986-3.021176-0.47912-4.302036-1.193083c-0.000084,0.00005-0.000072,0.000044-0.000156,0.000092  c-0.057619,4.671141,3.235425,8.582592,7.618456,9.467361c-0.796881,0.216927-1.636049,0.333878-2.502468,0.333878  c-0.612697,0-1.207537-0.059418-1.787343-0.171654c1.209415,3.786797,4.716441,6.543663,8.871871,6.62006  c-3.250481,2.556911-7.344831,4.081066-11.795332,4.081066c-0.76587,0-1.522343-0.045273-2.265659-0.13393  c4.204296,2.705933,9.196075,4.282902,14.559044,4.282902c17.470285,0,27.022516-14.5247,27.022516-27.121584  c0-0.088966-0.000393-0.177887-0.001186-0.266745c-0.00544-0.60895,0.270741-1.174002,0.745327-1.555599  c1.289928-1.037186,2.445206-2.243509,3.430332-3.578676C55.045856,17.878958,55.144676,17.259144,54.995533,16.684496z"/></svg>